<?xml version="1.0" encoding="utf-8"?>
<!-- Generator: Adobe Illustrator 22.1.0, SVG Export Plug-In . SVG Version: 6.00 Build 0)  -->
<svg version="1.1" id="Layer_1" xmlns="http://www.w3.org/2000/svg" xmlns:xlink="http://www.w3.org/1999/xlink" x="0px" y="0px"
	 viewBox="0 0 175 45" style="enable-background:new 0 0 175 45;" xml:space="preserve">
<style type="text/css">
	.st0{fill:#FFFFFF;}
</style>
<g>
	<path class="st0" d="M70.6,25.9c0,0.3,0.1,0.6,0.2,0.8c0.1,0.2,0.2,0.4,0.5,0.6c0.2,0.1,0.5,0.2,0.9,0.2l1.3,1.7H64v-0.6
		c-0.8,0.4-1.8,0.7-2.8,1c-1.1,0.3-2.3,0.5-3.8,0.5c-2.5,0-4.3-0.4-6.3-1.1c-2-0.7-3.7-1.7-5.2-3c-1.5-1.3-2.6-2.7-3.3-4.4
		c-0.8-1.7-1.2-3.5-1.2-5.5V9.5c0-0.9-0.2-1.7-0.4-2.5c-0.2-0.6-0.6-1.2-1-1.8c-0.4-0.5-1.1-0.8-1.9-0.8h-1.3l1.2-1.7h1.6
		c2.5,0,4.5,0.7,6,2.2c1.5,1.5,2.2,3.5,2.2,6v5c0,1.7,0.2,3.3,0.6,4.8c0.4,1.5,1.1,2.8,1.9,3.9c0.8,1.1,1.9,2,3.1,2.6
		c1.2,0.6,2.1,0.9,3.7,0.9c1.6,0,3-0.3,4-0.8c1-0.5,1.9-1.1,2.6-1.8V2.8h9.5l-1,1.6c-0.4,0-1,0.1-1.2,0.2c-0.2,0.2-0.4,0.4-0.5,0.6
		c-0.1,0.2-0.2,0.5-0.2,0.8V25.9z"/>
	<path class="st0" d="M96.7,2.3c2.5,0,4.9,0.4,7.1,1.1c2.2,0.7,4.1,1.7,5.8,3c1.6,1.2,2.9,2.7,3.9,4.4c1,1.7,1.4,3.5,1.4,5.4
		c0,1.9-0.5,3.7-1.4,5.4c-1,1.7-2.3,3.1-3.9,4.4c-1.6,1.2-3.6,2.2-5.8,2.9c-2.2,0.7-4.6,1.1-7.1,1.1h-2.6c-0.8,0-1.7,0-2.5-0.1v-3.1
		c1.6,0.8,3.4,1.5,5.1,1.5c1.6,0,3-0.2,4.4-0.9c1.4-0.6,2.6-1.5,3.7-2.6c1.1-1.1,1.9-2.4,2.5-3.9c0.6-1.5,0.9-3.1,0.9-4.7
		c0-1.7-0.3-3.3-0.9-4.7c-0.6-1.5-1.4-2.7-2.5-3.8c-1.1-1.1-2.3-2-3.7-2.6C99.8,4.3,98.3,4,96.7,4C95,4,93.5,4.3,92.1,5
		c-1.4,0.6-2.6,1.8-3.7,2.9v34.5h-8.3l-1.6-1.6h1.6c0.4,0,0.7-0.1,1-0.2c0.2-0.2,0.4-0.4,0.5-0.6c0.1-0.2,0.2-0.5,0.2-0.8V7.7
		c0-0.1,0-0.3-0.1-0.7c-0.1-0.4-0.2-0.7-0.4-1.1c-0.2-0.4-0.5-0.7-1-1c-0.4-0.3-1-0.5-1.8-0.5l1.4-1.7h8.4c0.8-0.1,1.7-0.1,2.6-0.2
		c0.8-0.1,1.7-0.2,2.7-0.2C94.6,2.3,95.6,2.3,96.7,2.3"/>
	<path class="st0" d="M120.4,29l-1.5-1.6h1.6c0.7,0,1.1-0.2,1.3-0.6c0.2-0.4,0.3-0.7,0.3-0.9V7.7c0-0.6-0.2-1.1-0.4-1.6
		c-0.2-0.4-0.6-0.8-1-1.2c-0.4-0.4-1.1-0.5-1.9-0.5l1.2-1.6c3.2,0,5,0.6,6.5,2.1c1.5,1.5,2.2,3.5,2.2,6v14.9c0,0.3,0.1,0.6,0.2,0.8
		c0.2,0.5,1.1,0.8,1.8,0.8l1.4,1.7L120.4,29L120.4,29z"/>
	<path class="st0" d="M154.5,28.3c1.7,0,3.3-0.3,4.7-0.9c1.5-0.6,2.8-1.5,3.9-2.6c1.1-1.1,2-2.4,2.6-3.9c0.6-1.5,1.1-3.1,1.1-4.8
		c0-1.7-0.5-3.3-1.1-4.7c-0.6-1.5-1.5-2.8-2.6-3.9c-1.1-1.1-2.4-2-3.9-2.6c-1.5-0.6-3.1-0.9-4.7-0.9c-1.7,0-3.3,0.3-4.7,0.9
		c-1.5,0.6-2.8,1.5-3.9,2.6c-1.1,1.1-2,2.4-2.6,3.9c-0.6,1.5-1.1,3.1-1.1,4.7c0,1.7,0.5,3.3,1.1,4.8c0.6,1.5,1.5,2.8,2.6,3.9
		c1.1,1.1,2.4,2,3.9,2.6C151.2,28,152.8,28.3,154.5,28.3 M154.5,2.3c2.6,0,5.1,0.4,7.4,1.1c2.3,0.7,4.3,1.7,6,3
		c1.7,1.3,3.1,2.7,4.1,4.4c1,1.7,1.4,3.5,1.4,5.4c0,1.9-0.4,3.7-1.4,5.4c-1,1.7-2.4,3.1-4.1,4.4c-1.7,1.2-3.7,2.2-6,2.9
		c-2.3,0.7-4.8,1.1-7.4,1.1c-2.6,0-5.1-0.4-7.4-1.1c-2.3-0.7-4.3-1.7-6.1-2.9c-1.7-1.2-3.1-2.7-4.1-4.4c-1-1.7-1.3-3.5-1.3-5.4
		c0-1.9,0.4-3.7,1.3-5.4c1-1.7,2.3-3.2,4.1-4.4c1.7-1.3,3.8-2.3,6.1-3C149.4,2.6,151.8,2.3,154.5,2.3"/>
	<path class="st0" d="M32.5,29.2c-0.9,0.5-1.9,0.9-3,1.2c-1,0.3-2.2,0.6-3.6,0.8c-1.4,0.2-2.9,0.4-4.7,0.4c-2.8,0-5.5-0.4-8-1.2
		c-2.5-0.8-4.7-1.9-6.6-3.2c-1.9-1.4-3.3-3-4.4-4.8c-1.1-1.8-1.6-3.8-1.6-5.8c0-2.1,0.5-4,1.6-5.8C3.3,9,4.8,7.4,6.7,6
		c1.9-1.4,4.1-2.4,6.6-3.2c2.5-0.8,5.2-1.2,8-1.2c3.1,0,6.3,0.6,9.5,1.7l1.7,5.9c-1.2-1.9-2.5-2.8-4.5-3.9c-2-1.1-4.3-1.6-6.7-1.6
		c-1.8,0-3.5,0.3-5.1,1c-1.6,0.7-3,1.6-4.2,2.7c-1.2,1.2-2.1,2.5-2.8,4.1c-0.7,1.6-1,3.3-1,5.1s0.3,3.5,1,5.1c0.7,1.6,1.6,3,2.8,4.2
		c1.2,1.2,2.6,2.1,4.2,2.8c1.6,0.7,3.3,1,5.1,1c2.4,0,4.6-0.6,6.7-1.8c2-1.2,3.8-2.5,4.8-4.3L32.5,29.2z"/>
</g>
</svg>
